inDegrees=yes
nColumns=22
nRows=21
DataType=double
version=3
OpenSimVersion=4.5
endheader
time	pelvis_tilt	pelvis_list	pelvis_rotation	pelvis_tx	pelvis_ty	pelvis_tz	hip_flexion_r	hip_adduction_r	hip_rotation_r	knee_angle_r	ankle_angle_r	mtp_angle_r	hip_flexion_l	hip_adduction_l	hip_rotation_l	knee_angle_l	ankle_angle_l	mtp_angle_l	lumbar_extension	lumbar_bending	lumbar_rotation
0.3934279274266388	0.1490017011314589	-2.166434449284475	2.318088813863741	0.4874960273543516	1.022841082456347	0.01422154585784357	-2.506549674648738	5.104173363855842	-13.34118561479087	-8.017709417590961	13.6852334018027	0	27.21838706007269	-3.597490965991525	-9.958236190499994	-26.51481307843025	-0.04679632511014087	0	-10.90437069682022	4.76559558834759	10.02203212283715
0.4053499858335067	0.1490429544282965	-2.73170706772531	2.101122839621604	0.5011366721146131	1.020467120585265	0.01467585792919551	-3.799700884771185	5.844937610252654	-13.1285178220075	-7.187829291234054	14.14562089461528	0	26.73309024241007	-3.928993214735972	-11.30054637944012	-21.78263924994776	-1.253830347035726	0	-10.78262088379031	5.371081782951484	10.11981807501363
0.4172720442403745	0.1247941743559508	-3.33402865133975	1.904893718497966	0.5147204750230141	1.017688368739511	0.01500048843075847	-4.960084965747769	6.582804543531342	-12.93025231090538	-6.579599551080874	14.65914960254343	0	26.31028272169653	-4.246316956851623	-12.79543564130506	-17.35781457556342	-1.983676042120749	0	-10.66096938976123	6.032301245116289	10.17322704152084
0.4291941026472423	0.0813940670921873	-3.943021384769738	1.721740040445945	0.5282261615784407	1.014590271672905	0.01521574986333168	-5.957090999873693	7.279347915896312	-12.76548802653254	-6.258319429450855	15.23269892235174	0	25.95834844404854	-4.522832803062243	-14.33505198861442	-13.27240312448775	-2.406062178477465	0	-10.55241113415017	6.709948655940577	10.18377942453016
0.4411161610541102	0.02849479504314709	-4.524370434172391	1.547285440072804	0.5416434844778517	1.01127399078022	0.01533575289670964	-6.780481765997281	7.896217302643115	-12.64552365946227	-6.260617939151361	15.87233807989396	0	25.68243115536599	-4.739815789559637	-15.81646227969478	-9.573417278485174	-2.663710891927543	0	-10.4729852625803	7.360907582406774	10.15332608691615
0.4530382194609781	-0.02147154735446427	-5.049718169703799	1.379498226665935	0.5549540348413755	1.007843199337183	0.0153821558319545	-7.437786219280856	8.405694146332154	-12.57442590520759	-6.592044118580026	16.57276004311525	0	25.49774449921511	-4.897943279445771	-17.10192295818675	-6.340989350099045	-2.802560610491057	0	-10.44351833068233	7.947203020147439	10.08702423790254
0.4649602778678459	-0.05683402702485327	-5.497731561036651	1.220818870699193	0.5681094844204899	1.004391911532984	0.01535960437738184	-7.95449304850534	8.791309170415545	-12.5498046593825	-7.215492033666415	17.30468751465705	0	25.45073582506744	-5.013605492409734	-18.12436737659403	-3.723294334146515	-2.805404663027502	0	-10.48908631576442	8.441580432856451	9.99524727297872
0.4768823362747138	-0.06810244867086221	-5.850448421224945	1.074346249418865	0.5810965023543639	1.00100630054495	0.01528088172379186	-8.383266710453727	9.046177480093927	-12.56742228261335	-8.0399995863417	18.0162003915853	0	25.59776381262907	-5.112843071011537	-18.86873079444797	-1.905565525144882	-2.706417890950343	0	-10.62455141200561	8.819456159029494	9.886764628288764
0.4888043946815816	-0.05193739575608497	-6.084665859111125	0.9356689628353256	0.5939651476889758	0.9977626424727879	0.01517159134933913	-8.793853778991965	9.160871504459919	-12.61962144065445	-8.93607847851294	18.64492961932635	0	25.95491869494726	-5.204204372087711	-19.34356749221768	-0.9692784441602402	-2.539354792664646	0	-10.84765205598116	9.04835163824435	9.771431055131824
0.5007264530884494	-0.01263823987582803	-6.17291008883153	0.792950315150681	0.6068014262956212	0.994722062902212	0.01505566199761555	-9.239499687336625	9.116983717681295	-12.69029964883939	-9.801147426927526	19.16217866217386	0	26.49397552980788	-5.269140396778228	-19.58572453877833	-0.8583484767470144	-2.375735402927494	0	-11.14247251831769	9.091725924610273	9.657070512076862
0.5126485114953173	0.0399630435980636	-6.103316056869057	0.6318836540114193	0.619713157229876	0.9919333668531159	0.01495544590845901	-9.752757180997387	8.90855243421937	-12.75787193764644	-10.55877723983097	19.5278076504957	0	27.16932374610785	-5.289860755652643	-19.64073917736957	-1.459749685594781	-2.286420100133439	0	-11.48281945613451	8.932103572543907	9.54988023368869
0.5245705699021851	0.09230890111215551	-5.875405516145823	0.4349578848965996	0.6328326431822253	0.9894326031606544	0.01489816828518474	-10.34177169537075	8.53579130245228	-12.80045482694993	-11.17669930994061	19.71828018937512	0	27.92090730938801	-5.25012472220828	-19.56386878142582	-2.619712679279238	-2.253754560571914	0	-11.83299936863794	8.56484492692174	9.45439318378665
0.536492628309053	0.1280192240690062	-5.487654323714043	0.1821773067333752	0.6463373473347109	0.987239938541978	0.01491434495564893	-11.00425471623251	7.994577546652724	-12.80759617357777	-11.63962401334503	19.71739197665503	0	28.66588291568491	-5.124733078588695	-19.43196810076721	-4.128131495198604	-2.213363681514354	0	-12.14389006874061	7.983949797169056	9.371818058427937
0.5484146867159209	0.1334252118516019	-4.957914329370437	-0.1385813731846978	0.6603954845980016	0.985365473709753	0.01502292217279593	-11.73092875455299	7.300429306350344	-12.78490201801915	-11.9451191536979	19.50329473371483	0	29.32447759072909	-4.906538285973854	-19.3195184464649	-5.774057084975199	-2.178192588689417	0	-12.36824140421295	7.208205565704059	9.30178269606815
0.5603367451227886	0.1025010127738917	-4.338143774433133	-0.5293859684678577	0.6751227909226527	0.9838257491308509	0.01522188405170605	-12.49243583460131	6.500986035174905	-12.75788408004881	-12.13342783263576	19.03801762423707	0	29.81990620109261	-4.62227769118164	-19.2698316795007	-7.359293641941894	-2.278121294505676	0	-12.47549720969777	6.300142147595746	9.248113666060364
0.5722588035296564	0.03753704378939415	-3.713164677979655	-0.9880461671213103	0.6906255787142481	0.9826597086883802	0.0154827063767487	-13.21626283495377	5.666698941421363	-12.7632295712359	-12.34613662131111	18.28557565760299	0	30.02026461035193	-4.317492521620844	-19.25682079925084	-8.589138972456213	-2.734061777573266	0	-12.44591561725322	5.366195849030063	9.221543131837802
0.5841808619365243	-0.05133221392394548	-3.183950209543478	-1.508417195644322	0.7069476358374049	0.9819189060125679	0.01570887817433565	-13.78452597916887	4.868803628573918	-12.82129770825213	-12.82535844263204	17.22223988413675	0	29.7864976706838	-4.035885969346013	-19.18479426639006	-9.169926517789667	-3.764858515219753	0	-12.28127598398422	4.54403661683765	9.246432041866425
0.5961029203433922	-0.1501197475684607	-2.811292302820848	-2.069474318466923	0.7240347602492256	0.9815571507082262	0.01586198168329781	-14.17963197002322	4.163867977228136	-12.89311111593156	-13.62534993291128	15.86478418029889	0	29.18626734618698	-3.837770105700196	-18.91069780038146	-9.368719197527128	-4.551486238545599	0	-12.00808075765822	3.911190870841533	9.331267095571361
0.6080249787502601	-0.2524847058623031	-2.508811483889731	-2.642088718009214	0.7418363737160714	0.9814623489800369	0.01595493861977405	-14.59488768022332	3.503532522747884	-12.83486132581623	-14.37987346273348	14.20804181617496	0	28.45383222556111	-3.674126912150914	-18.47616405352644	-9.854424966682657	-4.134883809992224	0	-11.64283991909652	3.360303505901699	9.45336112675268
0.6199470371571278	-0.3570292569974923	-2.13260666945154	-3.190274849719306	0.7600223015944478	0.9816778045125795	0.01597348376155084	-15.04255914943036	2.758011758023353	-12.67993700869581	-15.02329049495629	12.27536748252334	0	27.79752468384984	-3.414076601851457	-17.97458870739996	-10.70881425731467	-3.490976505591069	0	-11.2312658359241	2.716249406972073	9.570899155553896
0.6318690955639957	-0.4590305403956374	-1.601392770458943	-3.67248535774374	0.7780807310768292	0.9823518994576937	0.01584546941622364	-15.37401169841246	1.832734998494534	-12.49833380299395	-15.78310335354913	10.13812272412185	0	27.36991169841957	-2.9829568509319	-17.38985779723708	-11.77345184839555	-3.426936711460283	0	-10.85364340292196	1.883540830847978	9.645031575553395
